<svg xmlns="http://www.w3.org/2000/svg" width="512" height="512" viewBox="0 0 512 512"><path fill="#0096B1" d="M512 472c0 22.1-17.9 40-40 40H40c-22.1 0-40-17.9-40-40V40C0 17.9 17.9 0 40 0h432c22.1 0 40 17.9 40 40v432z"/><path fill-rule="evenodd" clip-rule="evenodd" fill="#213F9A" d="M198.2 282.1h28.6c-.4 23.1 2.1 43.1 2.4 65.5 10.1-20.5 18.1-43 26.2-65.5h31v65.5c10.6-21.1 20.5-43 29.8-65.5H346c-13 32.2-29.8 60.7-42.9 92.9H265v-52.4c-9.4 15.6-15 35-22.6 52.4h-36.9c-3.1-30.3-4.3-62.5-7.3-92.9zM449.5 282.1c-2.3 6.5-4.5 13-6 20.2-21.9-.9-40.2 1.9-61.9 1.2-2.9 3.8-3 10.5-4.8 15.5h60.7c-.6 6.9-3.4 11.7-4.8 17.9-21.2-.9-38.6 1.9-59.5 1.2-3.3 3.5-3.5 10-4.8 15.5 18.3 2.8 41.7.4 61.9 1.2-1.9 6.5-2.3 14.4-4.8 20.2H335c9.2-30.1 14.2-64.4 25-92.9h89.5z"/><path fill-rule="evenodd" clip-rule="evenodd" fill="#F99A1C" d="M117.3 318.1s48.6-76 153-79.6c0 0 71.9-2 117.9 25.4 0 0-78.5-29.5-162.5 1.6-30.1 11.1-58.8 28.1-76.2 52.4 9.2 15 19.8 27.6 36.5 57.2h-35.3c-11.6-18-22.2-38.9-33.4-57z"/><path fill-rule="evenodd" clip-rule="evenodd" fill="#213F9A" d="M102.3 265.9l38.9-19.1-44 128.2-34.7 15z"/><path fill-rule="evenodd" clip-rule="evenodd" fill="#FFF" d="M192.7 124.4c-1.5 5.6-3.9 12-5.9 17.7-2.1-.4-2.8-1.3-4.4-1.9-7.7-2.9-17.3-4.1-26.9-4.8-10.1-.7-20.3.2-28.6 2.7-16.2 4.7-28.8 15.6-30 33.4-1.4 21.1 18.4 25.5 40.1 23.7 1.3-3.6 2.9-7.8 4.6-12.4 1.4-4 4.1-9.4 3.2-13.4-.7-2.9-3.2-3.6-5.2-5.5h45.6c-4.7 13.6-9.5 27.1-14.1 40.8-32.6 5-77 7-101.5-7.1-8.2-4.7-15.3-12.2-14.5-24.2.7-9.9 6.3-18.1 12-23.8 17.9-17.9 46.1-25.7 79.9-27.3 15.8-.8 31.3.4 45.7 2.1zM456.9 124.5v.2c-2.1 5-4.1 11.9-6.3 18.1-5 14.4-10.3 30.2-15.6 45-1.1 2.9-2.9 6.4-2.7 9.5.2 4.1 3.4 5.3 5.5 7.1h-47.5c6.7-19 14.3-41.6 21.2-60.9 1.1-3 2.4-5.9 3.1-8.8 1.2-5.4-1.4-8.3-5.2-9.9-4.8 5.5-8.9 11.9-13.4 17.7-4-6.3-16.7-5.3-26.1-4.6-4.7 12.5-9.8 28.1-14.5 41.6-1.6 4.7-4.1 9.8-4.6 14.3-.2 1.9.1 4 .6 5.2 1 2.4 3.2 3.7 4.4 5.3h-47.9c7.6-22.1 15.4-44 22.9-66.2-13.3-1.5-27 .2-36.4 4.4-.3-.9.7-1.5 1.1-2.1 3.2-4.1 5.9-7.5 9.2-11.6 1-1.3 2.6-4.2 3.8-4.6 1-.3 2.7.3 3.8.4 11.4.7 23.6 0 36.1 0 35.5.1 74.8.1 108.5-.1zM228.6 124.9c15-.4 30.8-.1 46.2-.2 4.1 17.3 8.7 36.6 13.2 54.9 1.5 6.1 2.4 12.8 5.2 17.4 1.8 2.9 4.8 4.9 6.7 7.4H256c-2.1-10.4-4.4-20.5-6.7-30.7-1.9 4.4-3.8 9.7-9.3 10.3-7.4.9-18.9-.6-26.9 0-1.7 1.7-3.5 4.2-5.5 6.9-1.7 2.3-4.5 5.3-4.4 8 .1 3 3.2 3.4 4.6 5.5h-30.9c-.4-.5.7-1.4 1.3-2.1 14-17.4 27.8-34.8 42-52.7 2.3-2.9 4.8-5.9 7.3-9.2 2.1-2.8 6.4-6.5 6.1-10.3-.5-2.7-2.9-3.8-5-5.2zm-7.3 48.5H249c-1.7-9.1-3.8-19.4-6.1-28.4-7 9.5-15.1 19-21.6 28.4z"/></svg>